<?xml version="1.0" standalone="no"?>
<!DOCTYPE svg PUBLIC "-//W3C//DTD SVG 20010904//EN"
 "http://www.w3.org/TR/2001/REC-SVG-20010904/DTD/svg10.dtd">
<svg version="1.0" xmlns="http://www.w3.org/2000/svg"
 width="1408.000000pt" height="608.000000pt" viewBox="0 0 1408.000000 608.000000"
 preserveAspectRatio="xMidYMid meet">
<metadata>
Created by potrace 1.12, written by Peter Selinger 2001-2015
</metadata>
<g transform="translate(0.000000,608.000000) scale(0.100000,-0.100000)"
fill="rgb(0, 175, 175)" stroke="none">
<path d="M11999 5885 c-296 -72 -583 -369 -736 -765 -94 -240 -123 -392 -123
-633 0 -289 42 -462 158 -662 142 -245 329 -442 727 -765 71 -58 152 -126 179
-151 28 -25 92 -78 141 -119 358 -291 548 -484 682 -693 145 -227 181 -478
101 -711 -102 -299 -323 -497 -636 -573 -83 -19 -274 -22 -357 -4 -400 84
-683 335 -795 705 -63 206 -52 458 30 702 46 139 40 178 -36 210 -40 17 -85 4
-108 -31 -21 -32 -72 -207 -93 -318 -24 -132 -24 -412 0 -527 50 -232 146
-416 298 -575 100 -104 183 -167 309 -233 194 -102 365 -145 575 -145 297 1
556 108 746 310 145 154 253 367 289 568 20 115 9 320 -24 430 -46 153 -139
320 -260 470 -79 97 -101 121 -216 234 -111 109 -194 181 -575 496 -99 82
-198 165 -220 184 -23 20 -68 58 -100 86 -33 27 -121 110 -196 185 -243 241
-372 447 -409 649 -69 383 18 799 232 1113 104 152 270 296 405 349 46 18 78
23 153 23 86 1 101 -2 164 -32 139 -65 258 -221 348 -456 38 -97 46 -110 75
-123 64 -26 123 20 123 96 0 66 -82 256 -168 390 -137 213 -335 332 -548 330
-44 0 -104 -7 -135 -14z"/>
<path d="M2944 5539 c-19 -10 -42 -86 -50 -169 -10 -118 -83 -530 -124 -705
-5 -22 -16 -74 -25 -115 -67 -304 -166 -693 -262 -1025 -41 -143 -90 -312
-108 -375 -18 -63 -42 -144 -53 -180 -11 -36 -37 -121 -57 -190 -20 -69 -50
-167 -66 -217 l-31 -93 -306 -1 c-335 -1 -409 -3 -439 -13 -25 -8 -39 -79 -24
-117 20 -53 16 -52 379 -48 296 4 337 2 334 -11 -4 -15 -248 -843 -299 -1010
-28 -94 -133 -526 -133 -548 0 -24 66 -82 93 -82 13 0 36 9 51 21 27 21 41 61
105 304 34 127 160 572 209 740 17 55 46 154 65 220 20 66 53 176 74 245 l38
125 614 8 c338 4 619 6 626 3 6 -2 20 -44 30 -93 10 -48 38 -182 62 -298 25
-115 52 -241 60 -280 60 -292 179 -813 205 -898 33 -111 102 -160 171 -120 17
10 41 35 52 55 17 33 18 41 6 73 -16 46 -13 80 45 400 55 302 62 337 139 665
61 263 108 445 160 625 15 50 31 108 36 130 5 22 16 63 25 90 36 122 46 158
83 285 81 279 123 417 146 490 14 41 37 116 51 165 46 158 60 206 114 380 76
249 97 319 197 663 9 28 19 52 23 52 4 0 10 -28 14 -62 4 -35 11 -88 16 -118
6 -30 26 -156 46 -280 19 -124 45 -277 56 -340 11 -63 24 -140 28 -170 9 -59
53 -299 135 -745 44 -235 172 -845 195 -925 5 -19 26 -99 45 -177 78 -321 199
-710 282 -908 43 -103 94 -200 109 -208 8 -5 14 -24 14 -48 0 -79 92 -129 149
-81 23 18 99 230 127 349 8 38 26 104 39 148 72 243 137 479 236 850 50 188
189 744 224 890 14 61 30 126 35 145 5 19 11 46 13 60 2 14 19 86 37 160 56
236 156 717 216 1044 25 138 47 252 48 254 2 1 6 -50 10 -115 4 -65 20 -316
36 -558 68 -1014 116 -1992 136 -2758 6 -203 8 -230 25 -251 26 -33 70 -41
112 -21 53 25 60 65 53 291 -3 104 -8 225 -11 269 -2 44 -9 199 -15 345 -15
370 -37 805 -56 1138 -9 155 -13 286 -9 290 4 4 10 1 12 -6 3 -7 32 -54 65
-105 64 -96 378 -615 378 -623 0 -17 290 -497 428 -709 104 -159 453 -648 604
-845 129 -168 185 -230 233 -255 29 -16 39 -17 74 -6 46 13 71 49 71 101 0 31
-20 56 -73 92 -27 19 -67 69 -340 433 -250 333 -284 382 -479 685 -65 101
-282 466 -358 600 -174 310 -432 725 -526 848 l-33 44 69 101 c163 240 398
509 824 947 377 387 408 422 618 681 88 108 118 155 118 185 0 29 -65 84 -100
84 -46 0 -62 -12 -121 -92 -134 -182 -263 -325 -698 -774 -397 -408 -592 -632
-735 -841 -27 -40 -52 -70 -56 -68 -4 2 -10 53 -14 112 -37 596 -42 672 -76
1158 -11 154 -25 348 -31 430 -10 141 -12 152 -37 178 -49 51 -117 31 -155
-47 -21 -42 -28 -76 -37 -186 -11 -130 -43 -393 -75 -608 -39 -266 -200 -1088
-275 -1397 -10 -44 -33 -141 -50 -215 -38 -162 -111 -466 -187 -765 -49 -195
-68 -268 -128 -495 -8 -30 -35 -127 -59 -215 -25 -88 -54 -194 -65 -235 -11
-41 -27 -97 -35 -125 -8 -27 -27 -94 -43 -148 -15 -53 -30 -97 -34 -97 -12 0
-129 319 -179 490 -12 41 -26 89 -31 105 -67 223 -166 623 -245 995 -78 369
-176 899 -230 1250 -8 52 -19 118 -24 145 -29 153 -129 773 -169 1051 l-21
140 30 120 c35 142 36 157 10 195 -28 38 -78 48 -121 23 -27 -16 -34 -30 -51
-94 -11 -41 -23 -77 -27 -80 -5 -3 -12 -21 -16 -40 -4 -19 -12 -41 -17 -47 -6
-7 -8 -23 -5 -35 9 -32 -26 -162 -253 -933 -21 -71 -55 -186 -74 -255 -20 -69
-46 -152 -56 -185 -11 -33 -47 -152 -81 -265 -33 -113 -73 -248 -89 -300 -192
-640 -330 -1150 -421 -1552 -48 -216 -89 -419 -89 -445 0 -12 -6 -23 -13 -23
-13 0 -16 12 -82 330 -19 91 -44 208 -55 260 -35 162 -92 444 -94 460 -1 12
15 16 82 18 75 3 83 5 98 28 22 33 22 99 -1 124 -16 17 -31 20 -120 20 l-101
0 -44 213 c-23 116 -46 230 -50 252 -20 106 -145 720 -190 930 -12 55 -32 154
-45 220 -13 66 -55 267 -94 446 -39 179 -71 333 -71 343 0 9 -4 24 -9 34 -5 9
-17 55 -26 102 -30 148 -83 365 -105 422 -11 30 -30 64 -43 76 -26 25 -84 35
-113 21z m86 -626 c0 -8 39 -200 85 -413 15 -69 47 -224 72 -345 25 -121 49
-236 53 -255 4 -19 31 -150 59 -290 29 -140 56 -268 61 -285 5 -16 14 -57 19
-90 4 -33 32 -175 61 -315 55 -269 80 -395 83 -420 2 -13 -70 -16 -573 -22
-316 -4 -576 -5 -578 -3 -2 2 11 50 28 107 55 180 295 1002 325 1113 7 28 23
86 35 130 43 160 139 552 175 714 14 65 75 372 75 379 0 1 5 2 10 2 6 0 10 -3
10 -7z"/>
<path d="M9710 5523 c-19 -2 -77 -12 -128 -24 -102 -23 -145 -50 -168 -106
-18 -43 -17 -192 2 -313 22 -145 33 -775 34 -2075 1 -1404 14 -1930 56 -2171
19 -115 39 -149 96 -165 54 -15 368 -7 813 21 176 11 394 20 485 20 145 0 169
2 196 19 66 40 66 136 0 186 -40 30 -61 31 -104 5 -28 -17 -55 -20 -215 -25
-100 -2 -283 -11 -407 -19 -124 -8 -327 -18 -451 -22 l-227 -7 -6 49 c-12 101
-25 307 -35 569 -12 308 -23 1479 -14 1541 l5 42 102 7 c55 3 171 15 256 26
85 11 216 22 290 26 139 6 181 17 200 52 19 37 12 81 -19 112 -27 26 -36 29
-98 29 -85 0 -257 -15 -485 -41 -97 -11 -194 -19 -215 -17 l-38 3 -2 385 c-7
1072 -11 1315 -27 1430 -8 63 -15 145 -16 182 l0 67 38 12 c20 6 109 13 198
16 170 6 253 -1 709 -57 132 -16 284 -31 338 -32 l98 -3 30 33 c34 38 36 65 9
109 -21 35 -31 38 -165 48 -117 9 -405 42 -520 59 -208 31 -471 44 -615 29z"/>
<path d="M949 5446 c-3 -3 -79 -7 -168 -8 l-162 -1 -26 -31 -26 -31 6 -1030
c4 -566 10 -1613 13 -2325 7 -1416 4 -1338 65 -1364 40 -17 72 -10 101 21 l23
25 0 1171 0 1172 160 12 c88 6 279 17 425 23 254 11 266 12 288 34 12 12 25
38 28 57 5 29 1 41 -22 68 l-28 34 -246 -6 c-135 -3 -322 -11 -416 -18 -94 -7
-178 -9 -187 -6 -16 6 -17 85 -17 1006 l0 999 118 7 c64 5 335 4 602 -1 758
-13 748 -14 771 15 28 34 26 105 -4 135 -22 22 -31 23 -242 29 -384 12 -1050
20 -1056 13z"/>
</g>
</svg>
